HIERARCHY
ROOT RootJoint
{
    OFFSET   0.000000   0.000000   0.000000
    CHANNELS 6 Xposition Yposition Zposition Xrotation Yrotation Zrotation
    JOINT pelvis_lowerback
    {
        OFFSET   0.000000   0.093605   0.000000
        CHANNELS 3 Xrotation Yrotation Zrotation
        JOINT lowerback_torso
        {
            OFFSET   0.000000   0.100000   0.000000
            CHANNELS 3 Xrotation Yrotation Zrotation
            JOINT torso_head
            {
                OFFSET   0.000000   0.282350   0.000000
                CHANNELS 3 Xrotation Yrotation Zrotation
                End Site
                {
                    OFFSET   0.000000   0.192650   0.000000
                }
            }
            JOINT rTorso_Clavicle
            {
                OFFSET  -0.001000   0.157500   0.000000
                CHANNELS 3 Xrotation Yrotation Zrotation
                JOINT rShoulder
                {
                    OFFSET  -0.117647   0.000000   0.000000
                    CHANNELS 3 Xrotation Yrotation Zrotation
                    JOINT rElbow
                    {
                        OFFSET  -0.245000   0.000000   0.000000
                        CHANNELS 3 Xrotation Yrotation Zrotation
                        JOINT rWrist
                        {
                            OFFSET  -0.240000   0.000000   0.000000
                            CHANNELS 3 Xrotation Yrotation Zrotation
                            End Site
                            {
                                OFFSET  -0.116353  -0.002500   0.000000
                            }
                        }
                    }
                }
            }
            JOINT lTorso_Clavicle
            {
                OFFSET   0.001000   0.157500   0.000000
                CHANNELS 3 Xrotation Yrotation Zrotation
                JOINT lShoulder
                {
                    OFFSET   0.117647   0.000000   0.000000
                    CHANNELS 3 Xrotation Yrotation Zrotation
                    JOINT lElbow
                    {
                        OFFSET   0.245000   0.000000   0.000000
                        CHANNELS 3 Xrotation Yrotation Zrotation
                        JOINT lWrist
                        {
                            OFFSET   0.240000   0.000000   0.000000
                            CHANNELS 3 Xrotation Yrotation Zrotation
                            End Site
                            {
                                OFFSET   0.116353  -0.002500   0.000000
                            }
                        }
                    }
                }
            }
        }
    }
    JOINT rHip
    {
        OFFSET  -0.100000  -0.051395   0.000000
        CHANNELS 3 Xrotation Yrotation Zrotation
        JOINT rKnee
        {
            OFFSET   0.000000  -0.410000   0.000000
            CHANNELS 3 Xrotation Yrotation Zrotation
            JOINT rAnkle
            {
                OFFSET   0.000000  -0.390000   0.000000
                CHANNELS 3 Xrotation Yrotation Zrotation
                JOINT rToeJoint
                {
                    OFFSET   0.000000  -0.050000   0.130000
                    CHANNELS 3 Xrotation Yrotation Zrotation
                    End Site
                    {
                        OFFSET  -0.010000   0.002000   0.060000
                    }
                }
            }
        }
    }
    JOINT lHip
    {
        OFFSET   0.100000  -0.051395   0.000000
        CHANNELS 3 Xrotation Yrotation Zrotation
        JOINT lKnee
        {
            OFFSET   0.000000  -0.410000   0.000000
            CHANNELS 3 Xrotation Yrotation Zrotation
            JOINT lAnkle
            {
                OFFSET   0.000000  -0.390000   0.000000
                CHANNELS 3 Xrotation Yrotation Zrotation
                JOINT lToeJoint
                {
                    OFFSET   0.000000  -0.050000   0.130000
                    CHANNELS 3 Xrotation Yrotation Zrotation
                    End Site
                    {
                        OFFSET   0.010000   0.002000   0.060000
                    }
                }
            }
        }
    }
}
MOTION
Frames: 15
Frame Time:   0.008333
 -2.376719   0.925631   3.975860   0.000000   0.000000   0.000000   0.000000   0.000000   0.000000   0.000000   0.000000   0.000000   0.000000   0.000000   0.000000   0.000000   0.000000   0.000000   0.000000   0.000000   0.000000   0.000000   0.000000   0.000000   0.000000   0.000000   0.000000   0.000000   0.000000   0.000000   0.000000   0.000000   0.000000   0.000000   0.000000   0.000000   0.000000   0.000000   0.000000   0.000000   0.000000   0.000000   0.000000   0.000000   0.000000   0.000000   0.000000   0.000000   0.000000   0.000000   0.000000   0.000000   0.000000   0.000000   0.000000   0.000000   0.000000   0.000000   0.000000   0.000000   0.000000   0.000000   0.000000
 -2.376445   0.926445   3.974932   0.627517   0.029811   0.278862  -0.882619   0.239617  -0.235724   0.328271  -0.268933  -0.124397  -0.018525  -0.009157   0.016620   0.317777  -0.278502   0.738336   1.006689   0.411987   1.867291   0.014832   0.669522  -0.008235   0.517225  -0.614287  -2.797894   0.348176   0.114224  -0.894970   1.356938  -0.192443  -1.641683   0.016111  -0.700792   0.010963   0.491760   0.428559   2.992314  -1.418449  -0.100704  -0.500289   2.080868   0.003972  -0.001513  -1.526090  -0.521559   0.057610  -0.245105  -0.000350   0.001278  -1.103808  -0.195622  -0.163808   0.846601  -0.000868  -0.001255  -0.512394   0.369427  -0.199054   0.531671   0.000394   0.000917
 -2.376173   0.927762   3.973929   1.161883   0.153563   0.599839  -1.674372   0.445512  -0.493093   0.681185  -0.568911  -0.296956  -0.030413  -0.019203   0.026385   0.629024  -0.458347   2.252899   1.975902   0.923821   4.365769   0.034828   1.334050  -0.014665   1.060368  -1.020968  -4.803581   0.687894   0.099688  -2.598106   2.673753  -0.515324  -3.946729   0.038306  -1.397332   0.019587   1.028641   0.635928   5.207432  -2.726352  -0.194996  -1.185487   4.236222   0.009834  -0.001677  -2.944316  -1.021216   0.093649  -0.505707  -0.001022   0.002147  -2.158471  -0.391687  -0.227683   1.685106  -0.002657  -0.001588  -0.989726   0.717445  -0.382150   0.993966   0.000015   0.001785
 -2.375972   0.929108   3.972942   1.647212   0.317761   0.916741  -2.402138   0.628619  -0.754116   1.020853  -0.868512  -0.489893  -0.042607  -0.028263   0.036845   0.922068  -0.550059   4.225037   2.897084   1.528028   7.274820   0.054799   1.972512  -0.019219   1.585965  -1.282096  -5.902889   0.998253  -0.012145  -4.789069   3.923576  -0.953199  -6.648394   0.060776  -2.070139   0.025715   1.555325   0.680305   6.454815  -3.918107  -0.264314  -1.969068   6.284779   0.015958  -0.001516  -4.265662  -1.490387   0.113859  -0.743987  -0.001737   0.002589  -3.169696  -0.575638  -0.160445   2.460073  -0.004843  -0.001429  -1.435416   1.045712  -0.549326   1.405440  -0.000773   0.002477
 -2.375877   0.930132   3.972018   2.101396   0.489162   1.221261  -3.076428   0.800184  -1.023033   1.336555  -1.155256  -0.705426  -0.056625  -0.036390   0.051353   1.194717  -0.574846   6.447893   3.767473   2.219588  10.457952   0.072300   2.582670  -0.022303   2.097388  -1.427270  -6.331475   1.275457  -0.187523  -7.276803   5.062486  -1.472318  -9.487533   0.080388  -2.716116   0.029605   2.073171   0.592243   6.928561  -5.011547  -0.309446  -2.814143   8.207464   0.021550  -0.001707  -5.499424  -1.929890   0.121401  -0.969480  -0.002429   0.002815  -4.140653  -0.750489   0.026653   3.170756  -0.007064  -0.001130  -1.851923   1.355215  -0.701818   1.772842  -0.001713   0.002924
 -2.375895   0.930574   3.971190   2.531161   0.653268   1.510968  -3.703848   0.966119  -1.301888   1.626473  -1.423136  -0.941242  -0.071245  -0.043903   0.066540   1.445090  -0.553409   8.780047   4.583747   2.988587  13.819738   0.086244   3.162703  -0.024238   2.595432  -1.483830  -6.314953   1.518343  -0.397685  -9.901289   6.093650  -2.048394 -12.346809   0.095763  -3.331692   0.031734   2.578306   0.410753   6.885516  -6.017131  -0.332923  -3.697658  10.008017   0.026243  -0.002353  -6.651916  -2.341124   0.118699  -1.183017  -0.003047   0.002909  -5.069848  -0.919487   0.315334   3.823623  -0.009096  -0.000832  -2.241078   1.646640  -0.840970   2.102372  -0.002642   0.003151
 -2.375988   0.930235   3.970481   2.939543   0.806660   1.782733  -4.289750   1.129272  -1.584039   1.891533  -1.669530  -1.182334  -0.085509  -0.051035   0.076907   1.673724  -0.500270  11.167328   5.312154   3.794428  17.180777   0.096158   3.713275  -0.025122   3.080374  -1.464661  -5.959947   1.728835  -0.622813 -12.563063   7.022717  -2.661009 -15.158187   0.106556  -3.915021   0.032506   3.066529   0.167570   6.509274  -6.941721  -0.337514  -4.603807  11.693918   0.029952  -0.003318  -7.728579  -2.725537   0.107744  -1.384189  -0.003566   0.002911  -5.956003  -1.084849   0.685943   4.425329  -0.010802  -0.000566  -2.604590   1.920741  -0.968024   2.398958  -0.003456   0.003212
 -2.375835   0.928458   3.969502   3.140374   0.846348   2.078870  -4.566689   1.278219  -1.806752   2.177038  -1.816351  -1.445356  -0.254874  -0.220257  -0.030148   1.914236  -0.085745  13.018146   5.718693   4.467414  20.256582   0.099732   4.249890  -0.025602   3.440818  -1.450417  -4.591628   1.887833  -0.894659 -14.540786   7.826615  -3.559284 -17.913882   0.111524  -4.503451   0.033619   3.374519   0.033387   5.043158  -7.726870  -0.446499  -5.514547  13.355118   0.031920  -0.007709  -8.558417  -3.287227   0.145247  -1.410039  -0.002988   0.002497  -6.561229  -0.910707   0.950399   4.894619  -0.010922   0.000559  -2.772858   2.228244  -1.145381   2.570746  -0.003300   0.003361
 -2.375580   0.925447   3.968423   3.319045   0.862162   2.360133  -4.792699   1.414018  -1.993686   2.453426  -1.946043  -1.689383  -0.413706  -0.384478  -0.138538   2.082801   0.406740  14.562507   6.043942   5.175615  22.996179   0.099295   4.773310  -0.025727   3.792441  -1.353043  -3.342867   1.992856  -1.236870 -16.216342   8.520499  -4.493204 -20.361732   0.111771  -5.080599   0.034147   3.679614  -0.216379   3.656385  -8.494698  -0.546319  -6.373528  14.902292   0.032187  -0.011359  -9.329693  -3.816059   0.171197  -1.408882  -0.002385   0.001989  -7.118241  -0.734740   1.160875   5.328367  -0.010561   0.001292  -2.927790   2.517794  -1.310147   2.739822  -0.003076   0.003405
 -2.375275   0.921327   3.967364   3.489787   0.867965   2.620083  -4.994112   1.538517  -2.153618   2.704048  -2.068120  -1.908795  -0.558349  -0.537844  -0.239243   2.197294   0.919266  15.880615   6.302766   5.883206  25.461341   0.096168   5.277480  -0.025346   4.137331  -1.184099  -2.332537   2.055216  -1.607172 -17.663183   9.120406  -5.422972 -22.551447   0.108588  -5.634720   0.033913   3.978416  -0.539473   2.503983  -9.237212  -0.628389  -7.168820  16.332383   0.031212  -0.013908 -10.050388  -4.309776   0.188128  -1.405935  -0.001895   0.001572  -7.633986  -0.571209   1.333105   5.730406  -0.009918   0.001728  -3.071855   2.787967  -1.463508   2.896558  -0.002796   0.003329
 -2.374943   0.916187   3.966388   3.654502   0.869183   2.858851  -5.182624   1.651874  -2.291545   2.926356  -2.185004  -2.104729  -0.691447  -0.680773  -0.332562   2.274023   1.422843  17.024422   6.508880   6.568008  27.698469   0.091241   5.756227  -0.024471   4.470171  -0.979850  -1.517641   2.087106  -1.979235 -18.927456   9.641360  -6.326192 -24.525144   0.103108  -6.160175   0.032989   4.264920  -0.894150   1.553913  -9.947493  -0.695071  -7.899675  17.656286   0.029432  -0.015478 -10.724060  -4.770264   0.197699  -1.403009  -0.001504   0.001240  -8.107311  -0.419235   1.472891   6.105094  -0.009120   0.001964  -3.205817   3.040019  -1.606284   3.041471  -0.002491   0.003175
 -2.374734   0.912048   3.965159   3.851318   0.898460   2.853607  -5.355941   1.733260  -2.244516   3.125283  -2.310626  -2.209937  -0.821793  -0.814543  -0.412823   2.316948   1.918337  18.126398   6.668492   7.227189  29.760050   0.085703   6.204884  -0.023384   4.787589  -0.777931  -0.884926   2.082588  -2.364969 -20.165029  10.085983  -7.213164 -26.354352   0.096972  -6.657180   0.031699   4.537014  -1.250350   0.786704 -10.689397  -0.657018  -7.954212  18.838121   0.023641  -0.013283 -12.667823  -4.949034   0.604994  -1.239581  -0.001868   0.000700  -8.601752  -0.287726   1.782447   6.440657  -0.008142   0.002188  -3.324660   3.276303  -1.738139   3.218415  -0.002207   0.003194
 -2.374179   0.911261   3.964237   3.893594   1.249556   3.198793  -5.441634   1.708569  -2.493752   3.383135  -2.511201  -2.426764  -0.933875  -0.943403  -0.497536   2.361851   2.373785  19.333194   6.797086   7.844829  31.757585   0.080226   6.617055  -0.022292   5.087474  -0.614431  -0.308604   2.039119  -2.771061 -21.410176  10.461026  -8.084718 -28.056932   0.090902  -7.126325   0.029725   4.798429  -1.601522   0.138478 -11.439533  -0.562353  -8.402605  20.254530   0.020113  -0.008191 -13.189083  -5.193919   0.666919  -1.260440  -0.001497   0.000557  -9.155338  -0.088383   1.413296   7.109079  -0.006305   0.004779  -2.969894   3.546345  -2.033411   3.420180  -0.001213   0.003928
 -2.373811   0.911024   3.963489   3.922211   1.419639   3.427775  -5.386756   1.761201  -2.712661   3.562059  -2.624104  -2.518930  -1.111833  -1.069355  -0.593960   2.432112   2.824694  20.000941   6.790362   8.394087  33.367915   0.073830   7.086659  -0.021593   5.304268  -0.245520   1.133884   2.065490  -3.084328 -22.056437  10.519585  -8.926001 -29.565710   0.082607  -7.593527   0.027040   5.008873  -2.137493  -1.303748 -11.835881  -0.562277  -8.709103  20.915083   0.016368  -0.006517 -13.338740  -5.410852   0.689698  -1.035502  -0.001109   0.000129  -9.365761   0.184232   1.178074   7.272305  -0.004984   0.004417  -2.817832   3.749843  -2.116649   3.594855  -0.000773   0.004074
 -2.373530   0.910961   3.962613   4.048314   1.471061   3.611970  -5.326511   1.846630  -2.916363   3.687880  -2.691105  -2.585031  -1.281866  -1.185581  -0.679988   2.455318   3.267242  20.322149   6.765502   8.906671  34.667721   0.065694   7.531683  -0.020662   5.504009   0.158461   2.340144   2.076474  -3.369506 -22.353915  10.566265  -9.680718 -30.777980   0.072900  -8.025124   0.024595   5.194466  -2.663023  -2.525032 -12.254265  -0.590379  -8.963466  21.337670   0.013160  -0.005644 -13.376599  -5.632615   0.690693  -0.822659  -0.000770  -0.000452  -9.564096   0.434077   0.995163   7.263416  -0.003989   0.003513  -2.756932   3.937201  -2.175720   3.734761  -0.000485   0.003805
